<?xml version="1.0" encoding="UTF-8" standalone="no"?>
<!DOCTYPE svg PUBLIC "-//W3C//DTD SVG 1.1//EN" "http://www.w3.org/Graphics/SVG/1.1/DTD/svg11.dtd">
<!-- Created with Vectornator (http://vectornator.io/) -->
<svg height="100%" stroke-miterlimit="10" style="fill-rule:nonzero;clip-rule:evenodd;stroke-linecap:round;stroke-linejoin:round;" version="1.1" viewBox="0 0 166.11 71.89" width="100%" xml:space="preserve" xmlns="http://www.w3.org/2000/svg" xmlns:vectornator="http://vectornator.io" xmlns:xlink="http://www.w3.org/1999/xlink">
<defs/>
<g id="Layer-2" vectornator:layerName="Layer 2">
<path d="M0 0L166.11 0L166.11 71.89L0 71.89L0 0Z" fill="#000000" fill-opacity="0.5" fill-rule="nonzero" opacity="1" stroke="none" vectornator:layerName="Rectangle 1"/>
<g opacity="1" vectornator:layerName="Layer 2">
<path d="M75.79 13.66L72.61 23.82L78.99 23.82L75.81 13.66L75.79 13.66Z" fill="#ffffff" fill-rule="nonzero" opacity="1" stroke="none" vectornator:layerName="polygon"/>
<path d="M120.5 26.15C121.208 26.9118 122.008 27.5836 122.88 28.15C123.86 28.8167 125.017 29.5233 126.35 30.27C128.148 29.2305 129.743 27.8755 131.06 26.27C132.134 24.9317 132.716 23.2658 132.71 21.55C132.723 20.623 132.581 19.7004 132.29 18.82C132.029 18.0556 131.586 17.366 131 16.81C130.363 16.2248 129.605 15.7877 128.78 15.53C127.769 15.2237 126.716 15.0786 125.66 15.1C123.765 14.9495 121.887 15.5493 120.43 16.77C119.236 18.0021 118.613 19.6773 118.71 21.39C118.701 22.2629 118.85 23.1303 119.15 23.95C119.462 24.7596 119.92 25.5052 120.5 26.15Z" fill="#ffffff" fill-rule="nonzero" opacity="1" stroke="none" vectornator:layerName="path"/>
<path d="M39 15C38.5709 14.2831 37.9558 13.6957 37.22 13.3C36.3573 12.8728 35.4021 12.6666 34.44 12.7C33.4599 12.6645 32.4886 12.8961 31.63 13.37C30.8859 13.8129 30.2611 14.4308 29.81 15.17C29.3182 15.9779 28.9792 16.8694 28.81 17.8C28.6256 18.8563 28.5419 19.9278 28.56 21C28.5501 22.1793 28.6438 23.3571 28.84 24.52C28.989 25.4596 29.3075 26.3643 29.78 27.19C30.1992 27.9087 30.8127 28.4945 31.55 28.88C32.423 29.2962 33.3836 29.4951 34.35 29.46C35.3288 29.4951 36.2991 29.2672 37.16 28.8C37.9221 28.3473 38.5556 27.707 39 26.94C39.4919 26.1177 39.8307 25.2131 40 24.27C40.1853 23.1902 40.269 22.0954 40.25 21C40.2668 19.8615 40.1832 18.7238 40 17.6C39.8282 16.6796 39.4892 15.7984 39 15Z" fill="#ffffff" fill-rule="nonzero" opacity="1" stroke="none" vectornator:layerName="path"/>
<path d="M131.82 44.18C130.973 43.3174 130.026 42.5587 129 41.92C127.742 41.1175 126.444 40.3798 125.11 39.71C123.936 40.363 122.804 41.0877 121.72 41.88C120.816 42.5335 120 43.2997 119.29 44.16C118.674 44.9113 118.188 45.7594 117.85 46.67C117.525 47.5811 117.362 48.5425 117.37 49.51C117.242 51.463 118.02 53.3663 119.48 54.67C120.887 55.8567 122.987 56.45 125.78 56.45C128.573 56.45 130.617 55.8433 131.91 54.63C133.278 53.3378 134.01 51.5095 133.91 49.63C133.958 47.6046 133.178 45.6472 131.75 44.21L131.82 44.18Z" fill="#ffffff" fill-rule="nonzero" opacity="1" stroke="none" vectornator:layerName="path"/>
<path d="M0 0L0 71.89L166.11 71.89L166.11 0L0 0ZM10.4 9.76C10.3993 9.64088 10.4379 9.52486 10.51 9.43C10.608 9.3165 10.7364 9.23325 10.88 9.19C11.1075 9.11572 11.3421 9.06545 11.58 9.04C11.9489 9.00427 12.3195 8.99092 12.69 9C13.063 8.97703 13.437 8.97703 13.81 9C14.0479 9.02545 14.2825 9.07572 14.51 9.15C14.6534 9.19375 14.7816 9.27691 14.88 9.39C14.9521 9.48486 14.9907 9.60088 14.99 9.72L14.99 29L22.06 29C22.1684 28.9985 22.2742 29.0337 22.36 29.1C22.462 29.1879 22.5381 29.302 22.58 29.43C22.6473 29.6275 22.6909 29.8322 22.71 30.04C22.7671 30.6587 22.7671 31.2813 22.71 31.9C22.6894 32.1141 22.6458 32.3253 22.58 32.53C22.5398 32.6673 22.4638 32.7915 22.36 32.89C22.2768 32.9621 22.1701 33.0013 22.06 33L11.76 33C11.3918 33.0195 11.0313 32.8897 10.76 32.64C10.4716 32.322 10.3301 31.8974 10.37 31.47L10.4 9.76ZM26.5 54.92C26.2353 56.3553 25.7281 57.7351 25 59C24.3643 60.0651 23.47 60.9525 22.4 61.58C21.286 62.2028 20.026 62.5169 18.75 62.49C17.4985 62.5239 16.2602 62.2273 15.16 61.63C14.1393 61.0399 13.2884 60.1959 12.69 59.18C11.9937 57.9723 11.5132 56.6526 11.27 55.28C10.929 53.5409 10.7615 51.7722 10.77 50C10.7542 48.2501 10.9252 46.5036 11.28 44.79C11.56 43.3766 12.0845 42.023 12.83 40.79C13.473 39.7359 14.3661 38.8566 15.43 38.23C16.5469 37.6055 17.8107 37.2913 19.09 37.32C20.3241 37.2885 21.5448 37.5816 22.63 38.17C23.6463 38.7571 24.4964 39.5934 25.1 40.6C25.803 41.7895 26.2937 43.0923 26.55 44.45C26.8779 46.1566 27.0287 47.8924 27 49.63C27.0257 51.4091 26.8615 53.1858 26.51 54.93L26.5 54.92ZM44.83 61C44.8353 61.1931 44.8083 61.3858 44.75 61.57C44.7073 61.7049 44.6394 61.8304 44.55 61.94C44.4754 62.0296 44.3789 62.0984 44.27 62.14C44.1809 62.1763 44.0861 62.1966 43.99 62.2L43.63 62.2C43.4492 62.2038 43.2694 62.1732 43.1 62.11C42.9244 62.0348 42.7674 61.9222 42.64 61.78C42.4648 61.5892 42.3137 61.3776 42.19 61.15C42.0433 60.8833 41.8767 60.55 41.69 60.15L35.07 44.88C34.7433 44.14 34.41 43.3767 34.07 42.59C33.73 41.8033 33.3967 41.04 33.07 40.3L33.07 40.3C33.07 41.22 33.07 42.16 33.07 43.12L33.07 61.75C33.0849 61.8192 33.0849 61.8908 33.07 61.96C33.0379 62.0251 32.9851 62.0779 32.92 62.11C32.8348 62.1527 32.7438 62.183 32.65 62.2C32.3689 62.2504 32.0811 62.2504 31.8 62.2C31.7027 62.184 31.6084 62.1536 31.52 62.11C31.4714 62.0839 31.4302 62.0461 31.4 62C31.3848 61.9308 31.3848 61.8592 31.4 61.79L31.4 38.9C31.3642 38.5649 31.4651 38.2296 31.68 37.97C31.8218 37.8212 32.0148 37.7318 32.22 37.72L32.95 37.72C33.1463 37.7167 33.3419 37.7437 33.53 37.8C33.687 37.8508 33.8305 37.9362 33.95 38.05C34.0982 38.2005 34.2229 38.3724 34.32 38.56C34.44 38.78 34.5733 39.06 34.72 39.4L39.78 51.08C40.1 51.8067 40.4033 52.5067 40.69 53.18L41.52 55.18L42.32 57.1C42.5867 57.7267 42.85 58.3633 43.11 59.01L43.11 59.01C43.11 57.95 43.11 56.85 43.11 55.71L43.11 38.16C43.0948 38.0908 43.0948 38.0192 43.11 37.95C43.1437 37.8834 43.1957 37.8279 43.26 37.79C43.343 37.7421 43.4348 37.7115 43.53 37.7C43.6731 37.6884 43.8169 37.6884 43.96 37.7C44.0965 37.6891 44.2335 37.6891 44.37 37.7C44.4685 37.7104 44.5639 37.7411 44.65 37.79C44.7124 37.8301 44.764 37.8851 44.8 37.95C44.8343 38.0146 44.8515 38.0869 44.85 38.16L44.83 61ZM44.35 26.08C43.9454 27.5427 43.2405 28.905 42.28 30.08C41.3618 31.1697 40.1959 32.0235 38.88 32.57C37.3938 33.1688 35.802 33.4613 34.2 33.43C32.642 33.4614 31.091 33.2142 29.62 32.7C28.3633 32.2471 27.2418 31.4834 26.36 30.48C25.4181 29.3785 24.7347 28.0801 24.36 26.68C23.8952 24.8948 23.6765 23.0544 23.71 21.21C23.7054 19.4461 23.958 17.691 24.46 16C24.8599 14.5375 25.5616 13.1749 26.52 12C27.4403 10.9126 28.6056 10.0592 29.92 9.51C31.4114 8.90403 33.0105 8.60802 34.62 8.64C36.154 8.61198 37.6809 8.85574 39.13 9.36C40.3905 9.81098 41.5157 10.5749 42.4 11.58C43.3357 12.6781 44.0185 13.9686 44.4 15.36C44.8552 17.1258 45.0573 18.9474 45 20.77C45.0398 22.5653 44.8208 24.357 44.35 26.09L44.35 26.08ZM50.5 30.35C49.5779 29.2502 48.8966 27.9693 48.5 26.59C48.0076 24.8878 47.7717 23.1217 47.8 21.35C47.7789 19.5376 48.0386 17.7329 48.57 16C49.0099 14.5375 49.7375 13.1776 50.71 12C51.6024 10.9373 52.7284 10.0954 54 9.54C55.3378 8.97488 56.7779 8.6923 58.23 8.71C58.824 8.71207 59.4165 8.76898 60 8.88C60.5471 8.98078 61.0855 9.12456 61.61 9.31C62.0924 9.47104 62.5579 9.67869 63 9.93C63.3012 10.0936 63.5802 10.2953 63.83 10.53C63.9541 10.6558 64.0616 10.797 64.15 10.95C64.216 11.0828 64.2631 11.2242 64.29 11.37C64.3294 11.5715 64.3561 11.7752 64.37 11.98C64.37 12.21 64.37 12.5 64.37 12.85C64.37 13.2 64.37 13.53 64.37 13.79C64.3567 14.0042 64.3164 14.2159 64.25 14.42C64.2087 14.5517 64.1368 14.6716 64.04 14.77C63.9645 14.8417 63.8641 14.8812 63.76 14.88C63.5114 14.8468 63.28 14.7347 63.1 14.56C62.7806 14.3012 62.4468 14.0608 62.1 13.84C61.6224 13.5495 61.1164 13.3082 60.59 13.12C59.9174 12.8921 59.21 12.7838 58.5 12.8C57.6667 12.7848 56.8436 12.9845 56.11 13.38C55.3656 13.762 54.7242 14.3177 54.24 15C53.714 15.7962 53.3347 16.6802 53.12 17.61C52.8538 18.7403 52.7262 19.8988 52.74 21.06C52.7198 22.2892 52.8575 23.5159 53.15 24.71C53.3675 25.6242 53.7615 26.487 54.31 27.25C54.7822 27.8914 55.408 28.4038 56.13 28.74C56.8883 29.0761 57.7106 29.2433 58.54 29.23C59.2517 29.2457 59.9612 29.1443 60.64 28.93C61.1672 28.7565 61.6763 28.5321 62.16 28.26C62.58 28.0133 62.9133 27.79 63.16 27.59C63.3387 27.4363 63.557 27.3358 63.79 27.3C63.8884 27.2934 63.9863 27.3179 64.07 27.37C64.1568 27.4496 64.2163 27.5546 64.24 27.67C64.2942 27.8728 64.3277 28.0805 64.34 28.29C64.34 28.5567 64.34 28.91 64.34 29.35C64.34 29.6567 64.34 29.92 64.34 30.14C64.3258 30.3249 64.2991 30.5087 64.26 30.69C64.2305 30.8287 64.1835 30.9632 64.12 31.09C64.042 31.2273 63.948 31.3548 63.84 31.47C63.6176 31.6811 63.3689 31.8626 63.1 32.01C62.6731 32.2624 62.2246 32.4765 61.76 32.65C61.1723 32.8714 60.5668 33.042 59.95 33.16C59.225 33.2989 58.4881 33.3659 57.75 33.36C56.3239 33.3794 54.9076 33.1213 53.58 32.6C52.3921 32.1047 51.3372 31.3375 50.5 30.36L50.5 30.35ZM68.38 39.2C68.3646 39.307 68.3343 39.4114 68.29 39.51C68.256 39.5845 68.2045 39.6496 68.14 39.7C68.0863 39.7439 68.0194 39.7686 67.95 39.77L62.35 39.77L62.35 61.77C62.3652 61.8392 62.3652 61.9108 62.35 61.98C62.3179 62.0451 62.2651 62.0979 62.2 62.13C62.1116 62.1736 62.0173 62.204 61.92 62.22C61.6422 62.27 61.3578 62.27 61.08 62.22C60.9827 62.204 60.8884 62.1736 60.8 62.13C60.7349 62.0979 60.6821 62.0451 60.65 61.98C60.6348 61.9108 60.6348 61.8392 60.65 61.77L60.65 39.77L55 39.77C54.927 39.7718 54.8559 39.7469 54.8 39.7C54.7396 39.648 54.6918 39.5831 54.66 39.51C54.6149 39.4117 54.5846 39.3072 54.57 39.2C54.5591 39.0569 54.5591 38.9131 54.57 38.77C54.5588 38.6169 54.5588 38.4631 54.57 38.31C54.5849 38.1964 54.6151 38.0854 54.66 37.98C54.6908 37.9035 54.7387 37.8351 54.8 37.78C54.8559 37.7331 54.927 37.7082 55 37.71L68 37.71C68.0694 37.7114 68.1363 37.7361 68.19 37.78C68.2558 37.8332 68.3074 37.9019 68.34 37.98C68.3841 38.0857 68.4143 38.1966 68.43 38.31C68.4407 38.4631 68.4407 38.6169 68.43 38.77C68.4237 38.9144 68.407 39.0581 68.38 39.2ZM84.3 61.75C84.3149 61.8192 84.3149 61.8908 84.3 61.96C84.2679 62.0251 84.2151 62.0779 84.15 62.11C84.0616 62.1536 83.9673 62.184 83.87 62.2C83.7304 62.2147 83.5896 62.2147 83.45 62.2C83.3071 62.2155 83.1629 62.2155 83.02 62.2C82.9262 62.183 82.8352 62.1527 82.75 62.11C82.6886 62.0761 82.6395 62.0236 82.61 61.96C82.5948 61.8908 82.5948 61.8192 82.61 61.75L82.61 50.37L73.16 50.37L73.16 61.75C73.1749 61.8192 73.1749 61.8908 73.16 61.96C73.1279 62.0251 73.0751 62.0779 73.01 62.11C72.9248 62.1527 72.8338 62.183 72.74 62.2C72.4589 62.2504 72.1711 62.2504 71.89 62.2C71.7927 62.184 71.6984 62.1536 71.61 62.11C71.5486 62.0761 71.4995 62.0236 71.47 61.96C71.4548 61.8908 71.4548 61.8192 71.47 61.75L71.47 38.08C71.4548 38.0108 71.4548 37.9392 71.47 37.87C71.4995 37.8064 71.5486 37.7539 71.61 37.72C71.6981 37.6736 71.7924 37.6399 71.89 37.62C72.1711 37.5696 72.4589 37.5696 72.74 37.62C72.8344 37.6401 72.9253 37.6738 73.01 37.72C73.0751 37.7521 73.1279 37.8049 73.16 37.87C73.1749 37.9392 73.1749 38.0108 73.16 38.08L73.16 48.31L82.53 48.31L82.53 38.08C82.5148 38.0108 82.5148 37.9392 82.53 37.87C82.5595 37.8064 82.6086 37.7539 82.67 37.72C82.7551 37.6747 82.8459 37.641 82.94 37.62C83.0829 37.605 83.2271 37.605 83.37 37.62C83.5096 37.6059 83.6504 37.6059 83.79 37.62C83.8878 37.6392 83.9822 37.6729 84.07 37.72C84.1351 37.7521 84.1879 37.8049 84.22 37.87C84.2349 37.9392 84.2349 38.0108 84.22 38.08L84.3 61.75ZM86.25 32.82C86.0571 32.9748 85.8173 33.0595 85.57 33.06C85.2433 33.06 84.7967 33.06 84.23 33.06C83.6633 33.06 83.2033 33.06 82.85 33.06C82.5985 33.0693 82.3468 33.0491 82.1 33C81.9584 32.964 81.8322 32.8833 81.74 32.77C81.6626 32.65 81.6052 32.5183 81.57 32.38L80 27.55L71.61 27.55L70.19 32.22C70.1522 32.3716 70.0915 32.5166 70.01 32.65C69.9225 32.7789 69.7965 32.8769 69.65 32.93C69.4213 33.0106 69.1822 33.0577 68.94 33.07C68.6333 33.07 68.23 33.07 67.73 33.07C67.3057 33.0714 66.8816 33.048 66.46 33C66.2231 32.9945 65.9974 32.8978 65.83 32.73C65.7065 32.5562 65.6629 32.338 65.71 32.13C65.7694 31.7902 65.8563 31.4557 65.97 31.13L72.9 9.93C72.9546 9.74917 73.0355 9.57734 73.14 9.42C73.2512 9.27596 73.4053 9.17093 73.58 9.12C73.8602 9.04275 74.1493 9.00241 74.44 9C74.8133 9 75.2867 9 75.86 9C76.4333 9 76.98 9 77.5 9C77.8206 9.00648 78.1394 9.05011 78.45 9.13C78.6417 9.17378 78.8138 9.27915 78.94 9.43C79.0527 9.59848 79.1372 9.78427 79.19 9.98L86.14 31.16C86.2547 31.5025 86.3416 31.8536 86.4 32.21C86.4562 32.4256 86.3998 32.655 86.25 32.82ZM99.82 61.54C99.8061 61.6505 99.7758 61.7584 99.73 61.86C99.6963 61.9375 99.645 62.006 99.58 62.06C99.5267 62.1046 99.4595 62.1294 99.39 62.13L90.6 62.13C90.3948 62.1182 90.2018 62.0288 90.06 61.88C89.8451 61.6204 89.7442 61.2851 89.78 60.95L89.78 38.95C89.7442 38.6149 89.8451 38.2796 90.06 38.02C90.2018 37.8712 90.3948 37.7818 90.6 37.77L99.26 37.77C99.3294 37.7714 99.3963 37.7961 99.45 37.84C99.5165 37.8926 99.5681 37.9615 99.6 38.04C99.6441 38.1457 99.6743 38.2566 99.69 38.37C99.7012 38.5231 99.7012 38.6769 99.69 38.83C99.7009 38.9731 99.7009 39.1169 99.69 39.26C99.6746 39.367 99.6443 39.4714 99.6 39.57C99.5667 39.6449 99.5151 39.7102 99.45 39.76C99.3963 39.8039 99.3294 39.8286 99.26 39.83L91.56 39.83L91.56 48.42L98.2 48.42C98.2725 48.4207 98.3428 48.4453 98.4 48.49C98.4648 48.5401 98.5163 48.6053 98.55 48.68C98.5952 48.7818 98.6255 48.8896 98.64 49C98.6507 49.1531 98.6507 49.3069 98.64 49.46C98.6507 49.5998 98.6507 49.7402 98.64 49.88C98.6249 49.9807 98.5946 50.0785 98.55 50.17C98.5161 50.2391 98.4643 50.2978 98.4 50.34C98.3405 50.3788 98.271 50.3996 98.2 50.4L91.56 50.4L91.56 60.14L99.39 60.14C99.4594 60.1414 99.5263 60.1661 99.58 60.21C99.643 60.2619 99.6942 60.3267 99.73 60.4C99.7776 60.5009 99.8081 60.6091 99.82 60.72C99.8306 60.8732 99.8306 61.0268 99.82 61.18C99.8272 61.2999 99.8272 61.4201 99.82 61.54ZM101.58 31.89C101.559 32.1041 101.516 32.3153 101.45 32.52C101.41 32.6573 101.334 32.7815 101.23 32.88C101.147 32.9521 101.04 32.9913 100.93 32.99L90.63 32.99C90.2618 33.0095 89.9013 32.8797 89.63 32.63C89.3416 32.312 89.2001 31.8874 89.24 31.46L89.24 9.76C89.2393 9.64088 89.2779 9.52486 89.35 9.43C89.448 9.3165 89.5764 9.23325 89.72 9.19C89.9475 9.11572 90.1821 9.06545 90.42 9.04C91.1548 8.96622 91.8952 8.96622 92.63 9.04C92.8679 9.06545 93.1025 9.11572 93.33 9.19C93.4734 9.23375 93.6016 9.31691 93.7 9.43C93.7721 9.52486 93.8107 9.64088 93.81 9.76L93.81 29L100.88 29C100.988 28.9985 101.094 29.0337 101.18 29.1C101.282 29.1879 101.358 29.302 101.4 29.43C101.467 29.6275 101.511 29.8322 101.53 30.04C101.587 30.6587 101.587 31.2813 101.53 31.9L101.58 31.89ZM143.58 55.61C142.744 57.5555 141.45 59.2707 139.81 60.61C137.99 62.0641 135.89 63.1263 133.64 63.73C128.207 65.1086 122.521 65.1464 117.07 63.84C114.963 63.3085 112.984 62.3598 111.25 61.05C109.711 59.8554 108.5 58.2899 107.73 56.5C106.917 54.529 106.519 52.4117 106.56 50.28C106.549 48.7561 106.782 47.2403 107.25 45.79C107.712 44.3853 108.405 43.0673 109.3 41.89C110.277 40.62 111.417 39.4836 112.69 38.51C114.162 37.384 115.724 36.3806 117.36 35.51C116.004 34.748 114.716 33.8715 113.51 32.89C112.406 31.9927 111.421 30.9576 110.58 29.81C109.771 28.6985 109.15 27.4622 108.74 26.15C108.31 24.7474 108.097 23.2871 108.11 21.82C108.081 19.7204 108.472 17.6362 109.26 15.69C110.038 13.8869 111.214 12.2835 112.7 11C114.364 9.57687 116.31 8.52057 118.41 7.9C121.006 7.13263 123.704 6.76839 126.41 6.82C129.006 6.76804 131.594 7.10511 134.09 7.82C136.021 8.37579 137.811 9.3372 139.34 10.64C140.676 11.8312 141.705 13.3268 142.34 15C143.019 16.7915 143.359 18.6941 143.34 20.61C143.345 21.97 143.125 23.3215 142.69 24.61C142.252 25.9067 141.639 27.1379 140.87 28.27C140.046 29.4452 139.082 30.5164 138 31.46C136.804 32.5253 135.5 33.4637 134.11 34.26C135.707 35.1185 137.232 36.1051 138.67 37.21C139.917 38.1813 141.036 39.307 142 40.56C142.898 41.7227 143.61 43.0182 144.11 44.4C144.607 45.82 144.854 47.3155 144.84 48.82C144.885 51.1486 144.456 53.4621 143.58 55.62L143.58 55.61ZM159.25 57.67C158.916 58.5063 158.4 59.2577 157.74 59.87C157.064 60.4868 156.267 60.9567 155.4 61.25C154.434 61.5772 153.42 61.7394 152.4 61.73C151.729 61.7353 151.058 61.6716 150.4 61.54C149.831 61.4268 149.272 61.2662 148.73 61.06C148.288 60.8946 147.862 60.687 147.46 60.44C147.185 60.2764 146.93 60.0818 146.7 59.86C146.533 59.6823 146.413 59.4658 146.35 59.23C146.268 58.9032 146.231 58.5668 146.24 58.23C146.223 58.037 146.223 57.843 146.24 57.65C146.264 57.5037 146.301 57.3597 146.35 57.22C146.386 57.1188 146.448 57.029 146.53 56.96C146.597 56.9031 146.682 56.8713 146.77 56.87C147.036 56.9154 147.282 57.037 147.48 57.22C147.852 57.4982 148.239 57.7553 148.64 57.99C149.165 58.2972 149.717 58.5549 150.29 58.76C151.604 59.1938 153.017 59.2286 154.35 58.86C154.878 58.7082 155.371 58.4533 155.8 58.11C156.236 57.7662 156.58 57.3195 156.8 56.81C157.038 56.223 157.154 55.5934 157.14 54.96C157.161 54.3342 157.009 53.7148 156.7 53.17C156.399 52.676 156.005 52.2448 155.54 51.9C155.036 51.507 154.489 51.1716 153.91 50.9L152.04 50.04C151.373 49.7467 150.75 49.4133 150.17 49.04C149.568 48.6941 149.019 48.2629 148.54 47.76C148.062 47.2453 147.679 46.6493 147.41 46C147.113 45.201 146.974 44.352 147 43.5C147.002 42.7064 147.137 41.9187 147.4 41.17C147.662 40.4104 148.077 39.7126 148.62 39.12C149.21 38.4869 149.93 37.9888 150.73 37.66C151.683 37.2785 152.703 37.0915 153.73 37.11C154.23 37.11 154.729 37.1569 155.22 37.25C155.676 37.3317 156.124 37.4522 156.56 37.61C156.907 37.7439 157.242 37.9078 157.56 38.1C157.796 38.2376 158.02 38.3948 158.23 38.57C158.351 38.666 158.456 38.7808 158.54 38.91C158.592 39.0004 158.629 39.0982 158.65 39.2C158.677 39.3188 158.697 39.439 158.71 39.56C158.71 39.7 158.71 39.87 158.71 40.08C158.722 40.2598 158.722 40.4402 158.71 40.62C158.692 40.7599 158.658 40.8974 158.61 41.03C158.578 41.128 158.523 41.217 158.45 41.29C158.387 41.3478 158.305 41.3799 158.22 41.38C158.019 41.3431 157.834 41.2453 157.69 41.1C157.398 40.8787 157.09 40.6782 156.77 40.5C156.336 40.2597 155.88 40.0589 155.41 39.9C154.82 39.7047 154.201 39.61 153.58 39.62C152.962 39.6092 152.346 39.7039 151.76 39.9C151.277 40.0605 150.836 40.327 150.47 40.68C150.133 41.0131 149.874 41.4159 149.71 41.86C149.538 42.3376 149.453 42.8424 149.46 43.35C149.438 43.9982 149.59 44.6404 149.9 45.21C150.199 45.7202 150.597 46.1656 151.07 46.52C151.582 46.9129 152.135 47.2482 152.72 47.52L154.6 48.38C155.267 48.6667 155.893 48.98 156.48 49.32C157.086 49.6573 157.641 50.0781 158.13 50.57C158.627 51.0738 159.025 51.6677 159.3 52.32C159.612 53.0982 159.762 53.9319 159.74 54.77C159.769 55.7619 159.606 56.75 159.26 57.68L159.25 57.67Z" fill="#ffffff" fill-rule="nonzero" opacity="1" stroke="none" vectornator:layerName="path"/>
<path d="M23.79 42.47C23.3546 41.581 22.6966 40.8196 21.88 40.26C21.0031 39.7029 19.9783 39.424 18.94 39.46C17.8963 39.4261 16.8682 39.7199 16 40.3C15.1824 40.8838 14.5171 41.6554 14.06 42.55C13.5344 43.5906 13.1767 44.7077 13 45.86C12.7753 47.1814 12.6649 48.5197 12.67 49.86C12.6738 51.2464 12.7841 52.6305 13 54C13.1583 55.1552 13.4957 56.2787 14 57.33C14.4289 58.223 15.0839 58.9884 15.9 59.55C16.7952 60.116 17.8419 60.3951 18.9 60.35C19.9661 60.3908 21.0174 60.0894 21.9 59.49C22.7235 58.8919 23.3893 58.1025 23.84 57.19C24.3625 56.1376 24.72 55.0111 24.9 53.85C25.1181 52.5279 25.2252 51.1899 25.22 49.85C25.2269 48.4872 25.1233 47.126 24.91 45.78C24.7113 44.6251 24.3335 43.5083 23.79 42.47Z" fill="#ffffff" fill-rule="nonzero" opacity="1" stroke="none" vectornator:layerName="path"/>
</g>
</g>
</svg>
