<?xml version="1.0" encoding="UTF-8" standalone="no"?>
<!DOCTYPE svg PUBLIC "-//W3C//DTD SVG 1.1//EN" "http://www.w3.org/Graphics/SVG/1.1/DTD/svg11.dtd">
<!-- Created with Vectornator (http://vectornator.io/) -->
<svg height="71.9pt" stroke-miterlimit="10" style="fill-rule:nonzero;clip-rule:evenodd;stroke-linecap:round;stroke-linejoin:round;" version="1.1" viewBox="0 0 71.9 71.9" width="71.9pt" xml:space="preserve" xmlns="http://www.w3.org/2000/svg" xmlns:xlink="http://www.w3.org/1999/xlink">
<defs/>
<clipPath id="ArtboardFrame">
<rect height="71.9" width="71.9" x="0" y="0"/>
</clipPath>
<g clip-path="url(#ArtboardFrame)" id="layer1">
<g opacity="1">
<path d="M0 0L72.009 0L72.009 72.009L0 72.009L0 0Z" fill="#000000" fill-opacity="0.5" fill-rule="nonzero" opacity="1" stroke="none"/>
<path d="M4.14911 18.8859L4.14911 21.0345L7.29811 21.0345L7.29811 31.7592L9.92841 31.7592L9.92841 21.0345L13.0032 21.0345L13.4293 18.8859L4.14911 18.8859Z" fill="#ffffff" fill-rule="nonzero" opacity="1" stroke="none"/>
<path d="M14.2812 18.6263C14.3924 19.0154 14.4667 19.9043 14.4667 20.7935L14.4667 31.7592L16.9858 31.7592L16.9858 24.9612C17.5414 24.4612 18.3378 24.0907 18.949 24.0907C19.6531 24.0907 19.9124 24.4426 19.9124 25.3873L19.9124 31.7592L22.339 31.7592L22.339 25.128C22.339 24.0537 22.2834 23.9055 22.098 23.3686C21.8017 22.5719 20.8013 22.016 19.6344 22.016C18.6713 22.016 17.597 22.4234 16.9485 23.035C16.9485 22.9238 16.9858 22.5346 16.9858 22.2383L16.9858 20.3491C16.9858 19.4412 16.9302 18.5523 16.819 18.0337L14.2812 18.6263Z" fill="#ffffff" fill-rule="nonzero" opacity="1" stroke="none"/>
<path d="M13.4242 53.0502C12.7204 52.4389 11.4423 52.0315 10.1643 52.0315C8.08959 52.0315 6.23727 53.143 5.23691 55.014C4.64432 56.1252 4.36634 57.4035 4.36634 59.0148C4.36634 60.9044 4.88502 62.4599 5.92235 63.6273C6.97835 64.8312 8.34894 65.405 10.1271 65.405C11.5905 65.405 12.6834 65.0348 13.7021 64.2011L12.5166 62.5713C12.4312 62.6405 12.3447 62.708 12.2573 62.775C11.6274 63.2008 11.0163 63.4045 10.3125 63.4045C9.20089 63.4045 8.34894 62.9044 7.83025 61.9598C7.44112 61.256 7.29327 60.2743 7.29327 58.5146C7.29327 57.0143 7.51566 55.9398 8.01573 55.1991C8.47878 54.5136 9.3304 54.0875 10.2013 54.0875C10.9237 54.0875 11.6091 54.3285 12.2573 54.8102L13.4242 53.0502Z" fill="#ffffff" fill-rule="nonzero" opacity="1" stroke="none"/>
<path d="M14.7022 52.0501C14.8134 52.4393 14.8873 53.3281 14.8873 54.2173L14.8873 65.1828L17.4064 65.1828L17.4064 58.3852C17.9624 57.8845 18.7587 57.5144 19.37 57.5144C20.0737 57.5144 20.333 57.8665 20.333 58.8111L20.333 65.1828L22.7596 65.1828L22.7596 58.5518C22.7596 57.4772 22.704 57.3293 22.519 56.792C22.2227 55.9954 21.2223 55.4398 20.0554 55.4398C19.0919 55.4398 18.018 55.8473 17.3695 56.4584C17.3695 56.347 17.4064 55.9581 17.4064 55.6622L17.4064 53.7726C17.4064 52.865 17.3508 51.9758 17.2397 51.4572C17.2397 51.4572 14.7019 52.0501 14.7022 52.0501Z" fill="#ffffff" fill-rule="nonzero" opacity="1" stroke="none"/>
<path d="M34.0956 56.0879C34.318 56.7178 34.4291 57.4958 34.4291 58.311L34.4291 65.1828L36.911 65.1828L36.911 58.4775C37.4853 57.9588 38.1334 57.6252 38.6335 57.6252C39.282 57.6252 39.4674 57.9397 39.4674 59.0142L39.4674 65.1828L41.9123 65.1828L41.9123 58.2547C41.9123 57.6623 41.8568 57.255 41.7269 56.9029C41.4306 56.0876 40.5044 55.532 39.4488 55.532C38.8928 55.532 38.2447 55.6801 37.7446 55.9395C37.3371 56.1618 37.226 56.2361 36.6517 56.6435C36.6517 56.2544 36.5218 55.8469 36.2998 55.4581C36.2998 55.4581 34.0956 56.0876 34.0956 56.0879Z" fill="#ffffff" fill-rule="nonzero" opacity="1" stroke="none"/>
<path d="M43.968 56.0879C44.1904 56.7178 44.3016 57.4958 44.3016 58.311L44.3016 65.1828L46.7838 65.1828L46.7838 58.4775C47.3577 57.9588 48.0059 57.6252 48.5063 57.6252C49.1545 57.6252 49.3399 57.9397 49.3399 59.0142L49.3399 65.1828L51.7848 65.1828L51.7848 58.2547C51.7848 57.6623 51.7292 57.255 51.5997 56.9029C51.3034 56.0876 50.3769 55.532 49.3213 55.532C48.7653 55.532 48.1174 55.6801 47.6174 55.9395C47.2096 56.1618 47.0984 56.2361 46.5245 56.6435C46.5245 56.2544 46.3946 55.8469 46.1722 55.4581C46.1722 55.4581 43.968 56.0876 43.968 56.0879Z" fill="#ffffff" fill-rule="nonzero" opacity="1" stroke="none"/>
<path d="M65.7695 51.4761L63.2318 52.0501C63.3246 52.902 63.3617 53.6614 63.3617 54.9025L63.3617 61.9784C63.3617 63.3308 63.3989 63.6267 63.5839 64.1083C63.8799 64.9049 64.7322 65.405 65.7881 65.405C66.3254 65.405 66.844 65.3127 67.2699 65.1462L66.844 63.6638C66.7147 63.701 66.659 63.701 66.5661 63.701C66.3625 63.701 66.1583 63.6081 66.066 63.4422C65.9181 63.1828 65.8989 62.9601 65.8989 61.3297L65.8989 53.9394C65.8989 52.6057 65.8624 51.9945 65.7695 51.4758L65.7695 51.4761Z" fill="#ffffff" fill-rule="nonzero" opacity="1" stroke="none"/>
<path d="M28.2284 22.0721C26.9687 22.0721 26.0427 22.53 25.2646 23.4006C24.431 24.3268 24.0382 25.3756 24.0382 27.0797C24.0382 30.0622 25.8117 32.0874 28.535 32.0874C29.8686 32.0874 31.0193 31.6481 32.1119 30.7589C32.1119 30.7589 31.1921 29.2262 31.1921 29.2259C30.4327 29.8557 29.5913 30.1457 28.7394 30.1457C27.4613 30.1457 26.7976 29.3608 26.7976 27.8973L26.7976 27.7951L32.2141 27.7951L32.2141 27.2841C32.2141 25.3023 31.858 23.9829 30.9877 23.094C30.3762 22.4642 29.3213 22.0721 28.2284 22.0721ZM28.3306 23.9116C28.8306 23.9116 29.1118 24.0521 29.3526 24.4226C29.5749 24.7745 29.6592 25.1496 29.6592 25.8534L29.6592 25.9555L26.7976 25.9555C26.7976 24.6402 27.3861 23.9116 28.3306 23.9116Z" fill="#ffffff" fill-rule="nonzero" opacity="1" stroke="none"/>
<path d="M28.921 55.4751C28.0504 55.4751 27.1903 55.6991 26.2638 56.0883C25.5973 56.347 25.342 56.4146 24.7308 56.8038L25.855 58.6435C26.8737 57.9582 27.7155 57.5189 28.5121 57.5189C29.4197 57.5189 29.6363 57.8941 29.6363 58.9501L29.6363 59.3585C29.377 59.3399 29.3108 59.3585 29.1253 59.3585C26.1065 59.3585 24.5264 60.3042 24.5264 62.5269C24.5264 64.4166 25.6851 65.4905 27.7968 65.4905C28.5748 65.4905 29.2754 65.3127 29.7385 64.9797C29.9236 64.8497 29.8976 64.8019 30.2495 64.4683C30.4902 64.9504 31.106 65.4539 31.6803 65.6947L32.9067 64.1617C32.1843 63.6245 32.0891 63.2391 32.0891 62.2203L32.0891 62.0155L32.0891 58.8477C32.0891 57.8289 32.1164 57.4992 31.9868 57.1105C31.6163 56.0543 30.5139 55.4751 28.921 55.4751ZM29.5342 60.9939L29.6363 60.9939L29.6363 63.0377C29.2658 63.445 28.7709 63.7533 28.3078 63.7533C27.6779 63.7533 27.1836 63.2678 27.1836 62.5269C27.1836 61.3967 27.8113 60.9939 29.5342 60.9939Z" fill="#ffffff" fill-rule="nonzero" opacity="1" stroke="none"/>
<path d="M57.6387 55.4751C56.3785 55.4751 55.4531 55.9331 54.6747 56.8038C53.8415 57.7298 53.4484 58.8809 53.4484 60.5849C53.4484 63.5676 55.2222 65.4905 57.9453 65.4905C59.2786 65.4905 60.4291 65.0511 61.5221 64.1617L60.6023 62.6287C59.8423 63.2582 59.0018 63.6509 58.1495 63.6509C56.8714 63.6509 56.2078 62.7637 56.2078 61.3005L56.2078 61.1981L61.624 61.1981L61.624 60.6873C61.624 58.7053 61.2684 57.3861 60.3981 56.4972C59.7866 55.8672 58.7312 55.4751 57.6387 55.4751ZM57.7405 57.3147C58.2407 57.3147 58.5214 57.5571 58.7627 57.9279C58.9849 58.2795 59.0693 58.6547 59.0693 59.3585L59.0693 59.4609L56.2078 59.4609L56.2078 59.3585C56.2078 58.0438 56.796 57.3147 57.7405 57.3147Z" fill="#ffffff" fill-rule="nonzero" opacity="1" stroke="none"/>
<path d="M4.6204 35.3574C4.88205 35.3201 5.17796 35.2889 5.50813 35.264C5.8383 35.2391 6.17781 35.2204 6.52666 35.208C6.87557 35.1955 7.21508 35.1861 7.54525 35.1799C7.87542 35.1737 8.17133 35.1705 8.43299 35.1705C9.59171 35.1705 10.5822 35.3325 11.4045 35.6565C12.2268 35.9804 12.8934 36.4352 13.4043 37.0208C13.9151 37.6064 14.2889 38.3041 14.5256 39.1139C14.7624 39.9238 14.8807 40.8146 14.8807 41.7865C14.8807 42.6711 14.7685 43.5245 14.5443 44.3469C14.32 45.1692 13.9462 45.8981 13.4229 46.5335C12.8997 47.1689 12.2113 47.6797 11.3578 48.066C10.5043 48.4523 9.44842 48.6453 8.19001 48.6453C7.99064 48.6453 7.72589 48.6392 7.39572 48.6267C7.06555 48.6142 6.72294 48.5986 6.36785 48.58C6.01275 48.5613 5.67324 48.5426 5.34927 48.5239C5.02533 48.5052 4.78237 48.4834 4.6204 48.4585L4.6204 35.3574ZM8.63855 37.4506C8.36446 37.4506 8.08723 37.4568 7.8069 37.4693C7.52657 37.4818 7.31786 37.5005 7.18082 37.5254L7.18082 46.2905C7.23066 46.303 7.31476 46.3124 7.43313 46.3186C7.55149 46.3248 7.6792 46.331 7.81624 46.3373C7.95328 46.3435 8.08408 46.3497 8.20869 46.356C8.3333 46.3622 8.42674 46.3653 8.48902 46.3653C9.2117 46.3653 9.81286 46.2376 10.2925 45.9822C10.7722 45.7268 11.1522 45.3872 11.4326 44.9636C11.7129 44.54 11.9091 44.051 12.0213 43.4965C12.1334 42.9421 12.1895 42.3721 12.1895 41.7865C12.1895 41.2757 12.1396 40.7617 12.04 40.2446C11.9403 39.7276 11.7565 39.2635 11.4886 38.8523C11.2207 38.4412 10.8563 38.1047 10.3953 37.8431C9.93432 37.5814 9.34874 37.4506 8.63855 37.4506Z" fill="#ffffff" fill-rule="nonzero" opacity="1" stroke="none"/>
<path d="M16.2076 43.7675C16.2076 42.1852 16.5939 40.9673 17.3663 40.1138C18.1388 39.2603 19.2228 38.8336 20.6183 38.8336C21.3658 38.8336 22.0137 38.952 22.5619 39.1887C23.1101 39.4254 23.5649 39.7587 23.9262 40.1886C24.2875 40.6184 24.5585 41.1386 24.7392 41.7491C24.9198 42.3596 25.0102 43.0324 25.0102 43.7675C25.0102 45.3499 24.627 46.5678 23.8608 47.4212C23.0945 48.2747 22.0137 48.7014 20.6183 48.7014C19.8707 48.7014 19.2228 48.5831 18.6746 48.3463C18.1264 48.1096 17.6685 47.7763 17.3009 47.3465C16.9334 46.9166 16.6593 46.3965 16.4786 45.786C16.2979 45.1754 16.2076 44.5026 16.2076 43.7675ZM18.7119 43.7675C18.7119 44.1787 18.7493 44.5587 18.8241 44.9076C18.8988 45.2564 19.011 45.5617 19.1605 45.8233C19.31 46.085 19.5062 46.2874 19.7492 46.4307C19.9922 46.574 20.2818 46.6456 20.6183 46.6456C21.2537 46.6456 21.7271 46.4151 22.0386 45.9541C22.3501 45.4931 22.5059 44.7643 22.5059 43.7675C22.5059 42.9079 22.3626 42.2132 22.076 41.6837C21.7894 41.1542 21.3035 40.8894 20.6183 40.8894C20.0202 40.8894 19.553 41.1137 19.2166 41.5622C18.8801 42.0108 18.7119 42.7458 18.7119 43.7675Z" fill="#ffffff" fill-rule="nonzero" opacity="1" stroke="none"/>
<path d="M31.8504 41.3753C31.4641 41.2383 31.1153 41.1697 30.8038 41.1697C30.3677 41.1697 30.0033 41.285 29.7105 41.5155C29.4176 41.746 29.2214 42.0419 29.1217 42.4032L29.1217 48.4398L26.6922 48.4398L26.6922 39.0953L28.5798 39.0953L28.8601 40.3288L28.9348 40.3288C29.1467 39.8677 29.4332 39.5126 29.7946 39.2635C30.1559 39.0143 30.5795 38.8897 31.0654 38.8897C31.3893 38.8897 31.7569 38.9582 32.1681 39.0953L31.8504 41.3753Z" fill="#ffffff" fill-rule="nonzero" opacity="1" stroke="none"/>
<path d="M33.4763 39.0953L35.9059 39.0953L35.9059 48.4398L33.4763 48.4398L33.4763 39.0953ZM33.1212 36.4601C33.1212 36.0988 33.2552 35.7904 33.523 35.535C33.7909 35.2796 34.1616 35.1519 34.635 35.1519C35.1085 35.1519 35.4916 35.2796 35.7844 35.535C36.0772 35.7904 36.2236 36.0988 36.2236 36.4601C36.2236 36.8214 36.0772 37.1236 35.7844 37.3665C35.4916 37.6095 35.1085 37.731 34.635 37.731C34.1616 37.731 33.7909 37.6095 33.523 37.3665C33.2552 37.1236 33.1212 36.8214 33.1212 36.4601Z" fill="#ffffff" fill-rule="nonzero" opacity="1" stroke="none"/>
<path d="M38.2233 39.6372C38.7217 39.413 39.3135 39.2355 39.9988 39.1046C40.6841 38.9738 41.4004 38.9084 42.148 38.9084C42.7959 38.9084 43.3379 38.9862 43.774 39.142C44.21 39.2977 44.5558 39.5189 44.8112 39.8055C45.0667 40.092 45.2473 40.4346 45.3532 40.8333C45.4591 41.232 45.5121 41.6806 45.5121 42.1789C45.5121 42.7272 45.4934 43.2785 45.456 43.8329C45.4186 44.3874 45.3968 44.9325 45.3906 45.4682C45.3843 46.004 45.3999 46.5242 45.4373 47.0287C45.4747 47.5334 45.5681 48.0099 45.7176 48.4585L43.7366 48.4585L43.3441 47.1689L43.2507 47.1689C43.0015 47.5552 42.6558 47.8885 42.2134 48.1688C41.7711 48.4491 41.2011 48.5893 40.5034 48.5893C40.0673 48.5893 39.6748 48.5239 39.326 48.3931C38.9771 48.2622 38.6781 48.0753 38.4289 47.8324C38.1797 47.5895 37.9866 47.3029 37.8496 46.9727C37.7125 46.6425 37.6439 46.2719 37.6439 45.8607C37.6439 45.2876 37.7717 44.8048 38.0271 44.4123C38.2825 44.0198 38.65 43.7021 39.1297 43.4592C39.6095 43.2162 40.1825 43.048 40.8491 42.9545C41.5157 42.8611 42.2602 42.8331 43.0825 42.8704C43.1697 42.1727 43.1198 41.6712 42.9329 41.366C42.7461 41.0607 42.3287 40.9081 41.6808 40.9081C41.1949 40.9081 40.6809 40.9579 40.1389 41.0576C39.597 41.1573 39.1516 41.2881 38.8027 41.4501L38.2233 39.6372ZM41.307 46.5896C41.793 46.5896 42.1792 46.4806 42.4657 46.2625C42.7523 46.0445 42.9641 45.8109 43.1012 45.5617L43.1012 44.3469C42.715 44.3095 42.3443 44.3033 41.9892 44.3282C41.6341 44.3531 41.3195 44.4092 41.0454 44.4964C40.7713 44.5836 40.5532 44.7082 40.3913 44.8702C40.2293 45.0322 40.1483 45.2377 40.1483 45.4869C40.1483 45.8358 40.2511 46.1068 40.4567 46.2999C40.6622 46.493 40.9457 46.5896 41.307 46.5896Z" fill="#ffffff" fill-rule="nonzero" opacity="1" stroke="none"/>
<path d="M53.268 48.4398L53.268 43.1321C53.268 42.3721 53.159 41.8238 52.941 41.4875C52.7229 41.1511 52.3522 40.9829 51.829 40.9829C51.368 40.9829 50.9786 41.1168 50.6609 41.3847C50.3432 41.6525 50.1158 41.9859 49.9787 42.3846L49.9787 48.4398L47.5492 48.4398L47.5492 39.0953L49.4741 39.0953L49.7544 40.3288L49.8292 40.3288C50.1158 39.9301 50.4958 39.5812 50.9693 39.2821C51.4427 38.9831 52.0532 38.8336 52.8008 38.8336C53.2618 38.8336 53.6729 38.8959 54.0343 39.0205C54.3956 39.1451 54.7008 39.3507 54.95 39.6372C55.1992 39.9238 55.3861 40.3132 55.5107 40.8053C55.6353 41.2974 55.6976 41.9048 55.6976 42.6275L55.6976 48.4398L53.268 48.4398Z" fill="#ffffff" fill-rule="nonzero" opacity="1" stroke="none"/>
</g>
</g>
</svg>
