<?xml version="1.0" encoding="UTF-8" standalone="no"?>
<!DOCTYPE svg PUBLIC "-//W3C//DTD SVG 1.1//EN" "http://www.w3.org/Graphics/SVG/1.1/DTD/svg11.dtd">
<!-- Created with Vectornator (http://vectornator.io/) -->
<svg height="100%" stroke-miterlimit="10" style="fill-rule:nonzero;clip-rule:evenodd;stroke-linecap:round;stroke-linejoin:round;" version="1.1" viewBox="0 0 128 128" width="100%" xml:space="preserve" xmlns="http://www.w3.org/2000/svg" xmlns:vectornator="http://vectornator.io" xmlns:xlink="http://www.w3.org/1999/xlink">
<defs/>
<g id="Layer-1" vectornator:layerName="Layer 1">
<path d="M0 0L128 0L128 128L0 128L0 0Z" fill="#014da1" fill-rule="nonzero" opacity="1" stroke="none" vectornator:layerName="path"/>
<path d="M7.37528 33.5708L7.37528 37.39L12.9728 37.39L12.9728 56.4538L17.6483 56.4538L17.6483 37.39L23.1139 37.39L23.8714 33.5708L7.37528 33.5708Z" fill="#ffffff" fill-rule="nonzero" opacity="1" stroke="none" vectornator:layerName="path 1"/>
<path d="M25.3857 33.1092C25.5833 33.801 25.7153 35.381 25.7153 36.9616L25.7153 56.4538L30.1932 56.4538L30.1932 44.3699C31.1809 43.4811 32.5964 42.8225 33.6829 42.8225C34.9344 42.8225 35.3954 43.448 35.3954 45.1274L35.3954 56.4538L39.7088 56.4538L39.7088 44.6664C39.7088 42.7568 39.61 42.4934 39.2804 41.5389C38.7537 40.1228 36.9755 39.1346 34.9013 39.1346C33.1893 39.1346 31.2797 39.8589 30.1269 40.946C30.1269 40.7483 30.1932 40.0565 30.1932 39.5299L30.1932 36.1716C30.1932 34.5579 30.0944 32.9778 29.8967 32.0559C29.8967 32.0559 25.3857 33.1092 25.3857 33.1092Z" fill="#ffffff" fill-rule="nonzero" opacity="1" stroke="none" vectornator:layerName="path 2"/>
<path d="M23.8622 94.2996C22.6112 93.2131 20.3394 92.4888 18.0676 92.4888C14.3797 92.4888 11.0871 94.4647 9.30889 97.7904C8.25554 99.7657 7.76142 102.038 7.76142 104.902C7.76142 108.261 8.68339 111.026 10.5273 113.101C12.4044 115.241 14.8407 116.261 18.0014 116.261C20.6028 116.261 22.5455 115.603 24.3563 114.121L22.249 111.224C22.0971 111.347 21.9434 111.467 21.7881 111.586C20.6684 112.343 19.582 112.705 18.331 112.705C16.3551 112.705 14.8407 111.816 13.9187 110.137C13.227 108.886 12.9642 107.141 12.9642 104.013C12.9642 101.346 13.3595 99.4361 14.2484 98.1194C15.0715 96.901 16.5853 96.1435 18.1333 96.1435C19.4174 96.1435 20.6359 96.5719 21.7881 97.4282C21.7881 97.4282 23.8622 94.2996 23.8622 94.2996Z" fill="#ffffff" fill-rule="nonzero" opacity="1" stroke="none" vectornator:layerName="path 11"/>
<path d="M26.134 92.5219C26.3317 93.2137 26.463 94.7937 26.463 96.3743L26.463 115.866L30.9409 115.866L30.9409 103.783C31.9292 102.893 33.3447 102.235 34.4312 102.235C35.6822 102.235 36.1431 102.861 36.1431 104.54L36.1431 115.866L40.4565 115.866L40.4565 104.079C40.4565 102.169 40.3577 101.906 40.0287 100.951C39.502 99.5349 37.7238 98.5473 35.6496 98.5473C33.937 98.5473 32.028 99.2716 30.8752 100.358C30.8752 100.16 30.9409 99.4687 30.9409 98.9426L30.9409 95.5837C30.9409 93.9705 30.8421 92.3899 30.6445 91.468C30.6445 91.468 26.1334 92.5219 26.134 92.5219Z" fill="#ffffff" fill-rule="nonzero" opacity="1" stroke="none" vectornator:layerName="path 12"/>
<path d="M60.6068 99.6994C61.0021 100.819 61.1997 102.202 61.1997 103.651L61.1997 115.866L65.6114 115.866L65.6114 103.947C66.6322 103.025 67.7843 102.432 68.6732 102.432C69.8259 102.432 70.1555 102.991 70.1555 104.901L70.1555 115.866L74.5015 115.866L74.5015 103.551C74.5015 102.498 74.4027 101.774 74.1719 101.148C73.6452 99.6989 71.9989 98.7112 70.1224 98.7112C69.1342 98.7112 67.982 98.9745 67.0931 99.4355C66.3688 99.8308 66.1712 99.9628 65.1504 100.687C65.1504 99.9953 64.9196 99.271 64.5249 98.5798C64.5249 98.5798 60.6068 99.6989 60.6068 99.6994Z" fill="#ffffff" fill-rule="nonzero" opacity="1" stroke="none" vectornator:layerName="path 14"/>
<path d="M78.1556 99.6994C78.5509 100.819 78.7486 102.202 78.7486 103.651L78.7486 115.866L83.1608 115.866L83.1608 103.947C84.181 103.025 85.3332 102.432 86.2226 102.432C87.3748 102.432 87.7044 102.991 87.7044 104.901L87.7044 115.866L92.0503 115.866L92.0503 103.551C92.0503 102.498 91.9515 101.774 91.7213 101.148C91.1946 99.6989 89.5478 98.7112 87.6713 98.7112C86.683 98.7112 85.5314 98.9745 84.6426 99.4355C83.9177 99.8308 83.72 99.9628 82.6998 100.687C82.6998 99.9953 82.469 99.271 82.0737 98.5798C82.0737 98.5798 78.1556 99.6989 78.1556 99.6994Z" fill="#ffffff" fill-rule="nonzero" opacity="1" stroke="none" vectornator:layerName="path 15"/>
<path d="M116.909 91.5017L112.398 92.5219C112.563 94.0362 112.629 95.3861 112.629 97.5922L112.629 110.17C112.629 112.574 112.695 113.1 113.024 113.956C113.55 115.372 115.065 116.261 116.942 116.261C117.897 116.261 118.819 116.097 119.576 115.801L118.819 113.166C118.589 113.232 118.49 113.232 118.325 113.232C117.963 113.232 117.6 113.067 117.436 112.772C117.173 112.311 117.139 111.915 117.139 109.017L117.139 95.8802C117.139 93.5096 117.074 92.4231 116.909 91.5011L116.909 91.5017Z" fill="#ffffff" fill-rule="nonzero" opacity="1" stroke="none" vectornator:layerName="path 17"/>
<path d="M50.1775 39.2343C47.9383 39.2343 46.2923 40.0484 44.9093 41.5959C43.4275 43.2422 42.7293 45.1065 42.7293 48.1357C42.7293 53.4373 45.8818 57.0372 50.7225 57.0372C53.0931 57.0372 55.1385 56.2562 57.0807 54.6756C57.0807 54.6756 55.4457 51.9512 55.4457 51.9506C54.0959 53.0702 52.6001 53.5856 51.0858 53.5856C48.814 53.5856 47.6342 52.1904 47.6342 49.589L47.6342 49.4073L57.2623 49.4073L57.2623 48.499C57.2623 44.9762 56.6293 42.6309 55.0824 41.0509C53.9953 39.9313 52.1203 39.2343 50.1775 39.2343ZM50.3592 42.5042C51.248 42.5042 51.7479 42.7539 52.1758 43.4125C52.5711 44.038 52.7208 44.7048 52.7208 45.9558L52.7208 46.1374L47.6342 46.1374C47.6342 43.7994 48.6803 42.5042 50.3592 42.5042Z" fill="#ffffff" fill-rule="nonzero" opacity="1" stroke="none" vectornator:layerName="Curve 2"/>
<path d="M51.4086 98.61C49.8611 98.61 48.3322 99.0082 46.6854 99.7C45.5006 100.16 45.0469 100.28 43.9604 100.972L45.9587 104.242C47.7695 103.024 49.2658 102.243 50.6819 102.243C52.2951 102.243 52.6802 102.91 52.6802 104.787L52.6802 105.513C52.2192 105.48 52.1015 105.513 51.7719 105.513C46.4058 105.513 43.5971 107.194 43.5971 111.145C43.5971 114.504 45.6567 116.413 49.4103 116.413C50.7933 116.413 52.0387 116.097 52.8619 115.505C53.1909 115.274 53.1447 115.189 53.7702 114.596C54.198 115.453 55.2927 116.348 56.3135 116.776L58.4934 114.051C57.2093 113.096 57.0401 112.411 57.0401 110.6L57.0401 110.236L57.0401 104.605C57.0401 102.794 57.0887 102.208 56.8584 101.517C56.1998 99.6396 54.2402 98.6101 51.4086 98.61ZM52.4986 108.42L52.6802 108.42C52.6802 108.42 52.6802 112.053 52.6802 112.053C52.0216 112.777 51.1418 113.325 50.3186 113.325C49.199 113.325 48.3203 112.462 48.3203 111.145C48.3203 109.136 49.4362 108.42 52.4986 108.42Z" fill="#ffffff" fill-rule="nonzero" opacity="1" stroke="none" vectornator:layerName="Curve 5"/>
<path d="M102.456 98.61C100.216 98.61 98.571 99.4242 97.1874 100.972C95.7062 102.618 95.0075 104.664 95.0075 107.693C95.0075 112.995 98.1606 116.413 103.001 116.413C105.371 116.413 107.416 115.632 109.359 114.051C109.359 114.051 107.724 111.326 107.724 111.326C106.373 112.445 104.879 113.143 103.364 113.143C101.092 113.143 99.9124 111.566 99.9124 108.965L99.9124 108.783L109.54 108.783L109.54 107.875C109.54 104.352 108.908 102.007 107.361 100.427C106.274 99.307 104.398 98.61 102.456 98.61ZM102.637 101.88C103.526 101.88 104.025 102.311 104.454 102.97C104.849 103.595 104.999 104.262 104.999 105.513L104.999 105.695L99.9124 105.695C99.9124 105.695 99.9124 105.513 99.9124 105.513C99.9124 103.176 100.958 101.88 102.637 101.88Z" fill="#ffffff" fill-rule="nonzero" opacity="1" stroke="none" vectornator:layerName="Curve 6"/>
<path d="M8.21302 62.8498C8.67811 62.7834 9.20411 62.728 9.79101 62.6837C10.3779 62.6394 10.9814 62.6062 11.6015 62.5841C12.2217 62.5619 12.8252 62.5453 13.4121 62.5342C13.999 62.5232 14.525 62.5176 14.9901 62.5176C17.0498 62.5176 18.8105 62.8055 20.2722 63.3814C21.7339 63.9572 22.9188 64.7656 23.8268 65.8065C24.7349 66.8474 25.3993 68.0877 25.8201 69.5272C26.2409 70.9668 26.4513 72.5503 26.4513 74.2778C26.4513 75.8503 26.2519 77.3673 25.8533 78.8291C25.4546 80.2908 24.7902 81.5864 23.86 82.7159C22.9299 83.8454 21.7062 84.7534 20.1891 85.44C18.672 86.1266 16.7951 86.4698 14.5582 86.4698C14.2038 86.4698 13.7332 86.4588 13.1463 86.4366C12.5594 86.4145 11.9504 86.3868 11.3192 86.3536C10.688 86.3204 10.0845 86.2871 9.50863 86.2539C8.9328 86.2207 8.50093 86.1819 8.21302 86.1376L8.21302 62.8498ZM15.3555 66.5706C14.8683 66.5706 14.3755 66.5816 13.8772 66.6038C13.3789 66.6259 13.0079 66.6592 12.7643 66.7034L12.7643 82.284C12.8529 82.3062 13.0024 82.3228 13.2128 82.3339C13.4232 82.3449 13.6502 82.356 13.8938 82.3671C14.1374 82.3781 14.3699 82.3892 14.5914 82.4003C14.8129 82.4114 14.979 82.4169 15.0897 82.4169C16.3743 82.4169 17.4429 82.1899 18.2955 81.7359C19.1482 81.2819 19.8237 80.6783 20.322 79.9253C20.8203 79.1723 21.1691 78.3031 21.3685 77.3175C21.5678 76.332 21.6675 75.3187 21.6675 74.2778C21.6675 73.3698 21.5789 72.4562 21.4017 71.5371C21.2245 70.618 20.8978 69.793 20.4217 69.0621C19.9455 68.3313 19.2977 67.7333 18.4783 67.2682C17.6588 66.8031 16.6179 66.5706 15.3555 66.5706Z" fill="#ffffff" fill-rule="nonzero" opacity="1" stroke="none"/>
<path d="M28.8099 77.7992C28.8099 74.9865 29.4965 72.8216 30.8696 71.3045C32.2428 69.7874 34.1696 69.0289 36.6501 69.0289C37.9789 69.0289 39.1305 69.2393 40.105 69.6601C41.0795 70.0809 41.8879 70.6733 42.5301 71.4374C43.1724 72.2015 43.6541 73.1261 43.9753 74.2114C44.2964 75.2966 44.457 76.4925 44.457 77.7992C44.457 80.6119 43.7759 82.7768 42.4139 84.2939C41.0518 85.811 39.1305 86.5695 36.6501 86.5695C35.3212 86.5695 34.1696 86.3591 33.1951 85.9383C32.2206 85.5175 31.4067 84.9251 30.7534 84.161C30.1 83.3969 29.6128 82.4723 29.2916 81.3871C28.9705 80.3018 28.8099 79.1059 28.8099 77.7992ZM33.2615 77.7992C33.2615 78.5301 33.328 79.2056 33.4609 79.8257C33.5937 80.4458 33.7931 80.9884 34.0588 81.4535C34.3246 81.9186 34.6734 82.2785 35.1053 82.5332C35.5372 82.7879 36.0521 82.9152 36.6501 82.9152C37.7796 82.9152 38.6212 82.5055 39.1748 81.686C39.7285 80.8666 40.0054 79.571 40.0054 77.7992C40.0054 76.2711 39.7507 75.0363 39.2413 74.0951C38.7319 73.1538 37.8682 72.6832 36.6501 72.6832C35.587 72.6832 34.7565 73.0818 34.1585 73.8791C33.5605 74.6765 33.2615 75.9831 33.2615 77.7992Z" fill="#ffffff" fill-rule="nonzero" opacity="1" stroke="none"/>
<path d="M56.6158 73.5469C55.9292 73.3033 55.3091 73.1815 54.7554 73.1815C53.9803 73.1815 53.3325 73.3864 52.812 73.7961C52.2915 74.2058 51.9427 74.7318 51.7655 75.3741L51.7655 86.1044L47.4468 86.1044L47.4468 69.494L50.8021 69.494L51.3004 71.6866L51.4333 71.6866C51.8098 70.8671 52.3192 70.2359 52.9615 69.793C53.6038 69.35 54.3568 69.1286 55.2205 69.1286C55.7963 69.1286 56.4497 69.2504 57.1805 69.494L56.6158 73.5469Z" fill="#ffffff" fill-rule="nonzero" opacity="1" stroke="none"/>
<path d="M59.506 69.494L63.8247 69.494L63.8247 86.1044L59.506 86.1044L59.506 69.494ZM58.8748 64.8099C58.8748 64.1676 59.1129 63.6194 59.589 63.1654C60.0652 62.7114 60.7241 62.4844 61.5657 62.4844C62.4073 62.4844 63.0883 62.7114 63.6088 63.1654C64.1292 63.6194 64.3895 64.1676 64.3895 64.8099C64.3895 65.4521 64.1292 65.9892 63.6088 66.4211C63.0883 66.8529 62.4073 67.0689 61.5657 67.0689C60.7241 67.0689 60.0652 66.8529 59.589 66.4211C59.1129 65.9892 58.8748 65.4521 58.8748 64.8099Z" fill="#ffffff" fill-rule="nonzero" opacity="1" stroke="none"/>
<path d="M67.9441 70.4574C68.83 70.0588 69.882 69.7432 71.1001 69.5106C72.3182 69.2781 73.5916 69.1618 74.9205 69.1618C76.0721 69.1618 77.0355 69.3002 77.8107 69.5771C78.5858 69.8539 79.2004 70.247 79.6544 70.7564C80.1085 71.2658 80.4296 71.8748 80.6178 72.5835C80.8061 73.2922 80.9002 74.0895 80.9002 74.9754C80.9002 75.9499 80.867 76.9299 80.8006 77.9155C80.7341 78.901 80.6954 79.87 80.6843 80.8223C80.6732 81.7746 80.7009 82.6993 80.7673 83.5962C80.8338 84.4932 80.9999 85.3403 81.2656 86.1376L77.7442 86.1376L77.0466 83.8454L76.8805 83.8454C76.4375 84.532 75.823 85.1244 75.0367 85.6227C74.2505 86.121 73.2373 86.3702 71.997 86.3702C71.2219 86.3702 70.5242 86.2539 69.9041 86.0214C69.284 85.7888 68.7525 85.4566 68.3095 85.0247C67.8666 84.5929 67.5233 84.0835 67.2797 83.4966C67.0361 82.9097 66.9142 82.2508 66.9142 81.5199C66.9142 80.5012 67.1413 79.643 67.5953 78.9453C68.0493 78.2477 68.7026 77.6829 69.5553 77.2511C70.408 76.8192 71.4267 76.5202 72.6116 76.3541C73.7965 76.188 75.1198 76.1382 76.5815 76.2046C76.7365 74.9644 76.6479 74.0729 76.3157 73.5303C75.9835 72.9877 75.2416 72.7164 74.0899 72.7164C73.2262 72.7164 72.3126 72.805 71.3492 72.9822C70.3858 73.1594 69.5941 73.3919 68.9739 73.6798L67.9441 70.4574ZM73.4255 82.8156C74.2893 82.8156 74.9758 82.6218 75.4852 82.2342C75.9946 81.8466 76.3711 81.4314 76.6147 80.9884L76.6147 78.8291C75.9282 78.7626 75.2693 78.7515 74.6381 78.7958C74.0069 78.8401 73.4477 78.9398 72.9604 79.0948C72.4732 79.2499 72.0856 79.4713 71.7977 79.7592C71.5098 80.0472 71.3658 80.4126 71.3658 80.8555C71.3658 81.4756 71.5485 81.9574 71.914 82.3006C72.2794 82.6439 72.7833 82.8156 73.4255 82.8156Z" fill="#ffffff" fill-rule="nonzero" opacity="1" stroke="none"/>
<path d="M94.6869 86.1044L94.6869 76.6697C94.6869 75.3187 94.4931 74.3442 94.1055 73.7463C93.7179 73.1483 93.059 72.8493 92.1289 72.8493C91.3094 72.8493 90.6173 73.0874 90.0526 73.5636C89.4878 74.0397 89.0836 74.6322 88.84 75.3409L88.84 86.1044L84.5213 86.1044L84.5213 69.494L87.943 69.494L88.4413 71.6866L88.5742 71.6866C89.0836 70.9779 89.7591 70.3577 90.6007 69.8262C91.4423 69.2947 92.5275 69.0289 93.8563 69.0289C94.6758 69.0289 95.4066 69.1396 96.0489 69.3611C96.6912 69.5826 97.2338 69.948 97.6767 70.4574C98.1197 70.9668 98.4519 71.6589 98.6734 72.5337C98.8948 73.4085 99.0056 74.4882 99.0056 75.7727L99.0056 86.1044L94.6869 86.1044Z" fill="#ffffff" fill-rule="nonzero" opacity="1" stroke="none"/>
</g>
</svg>
